HIERARCHY
ROOT Hips
{
	OFFSET 0.000000 0.000000 0.000000
	CHANNELS 6 Xposition Yposition Zposition Xrotation Yrotation Zrotation
	JOINT LeftUpLeg_virtual
	{
		OFFSET 0.000000 0.000000 0.000000
		CHANNELS 3 Xrotation Yrotation Zrotation
		JOINT LeftUpLeg
		{
			OFFSET 11.394100 -6.187798 -0.413800
			CHANNELS 3 Xrotation Yrotation Zrotation
			JOINT LeftLeg
			{
				OFFSET 0.430247 -32.302673 3.732800
				CHANNELS 3 Xrotation Yrotation Zrotation
				JOINT LeftFoot
				{
					OFFSET -0.430247 -48.264931 -6.423300
					CHANNELS 3 Xrotation Yrotation Zrotation
					JOINT LeftToeBase
					{
						OFFSET 4.230900 -16.068199 23.438400
						CHANNELS 3 Xrotation Yrotation Zrotation
						JOINT LeftToe_End
						{
							OFFSET 4.510700 0.695400 19.974600
							CHANNELS 3 Xrotation Yrotation Zrotation
							End Site
							{
								OFFSET 0 0 0
							}
						}
					}
				}
			}
		}
	}
	JOINT RightUpLeg_virtual
	{
		OFFSET 0.000000 0.000000 0.000000
		CHANNELS 3 Xrotation Yrotation Zrotation
		JOINT RightUpLeg
		{
			OFFSET -11.333700 -6.187798 -0.413800
			CHANNELS 3 Xrotation Yrotation Zrotation
			JOINT RightLeg
			{
				OFFSET -0.430392 -32.302628 3.733000
				CHANNELS 3 Xrotation Yrotation Zrotation
				JOINT RightFoot
				{
					OFFSET 0.430392 -48.264973 -6.423500
					CHANNELS 3 Xrotation Yrotation Zrotation
					JOINT RightToeBase
					{
						OFFSET -4.230900 -16.068199 23.438400
						CHANNELS 3 Xrotation Yrotation Zrotation
						JOINT RightToe_End
						{
							OFFSET -4.510700 0.695400 19.974600
							CHANNELS 3 Xrotation Yrotation Zrotation
							End Site
							{
								OFFSET 0 0 0
							}
						}
					}
				}
			}
		}
	}
	JOINT Spine_virtual
	{
		OFFSET 0.000000 0.000000 0.000000
		CHANNELS 3 Xrotation Yrotation Zrotation
		JOINT Spine
		{
			OFFSET -0.002400 12.777504 0.315300
			CHANNELS 3 Xrotation Yrotation Zrotation
			JOINT Spine1
			{
				OFFSET -0.002067 5.816869 0.032633
				CHANNELS 3 Xrotation Yrotation Zrotation
				JOINT Spine1_split
				{
					OFFSET -0.002067 5.816869 0.032633
					CHANNELS 3 Xrotation Yrotation Zrotation
					JOINT Spine2
					{
						OFFSET -0.002067 5.816869 0.032633
						CHANNELS 3 Xrotation Yrotation Zrotation
						JOINT Neck_virtual
						{
							OFFSET 0.000000 0.000000 0.000000
							CHANNELS 3 Xrotation Yrotation Zrotation
							JOINT Neck
							{
								OFFSET -0.003700 21.199493 -0.826900
								CHANNELS 3 Xrotation Yrotation Zrotation
								JOINT Head
								{
									OFFSET 0.000000 20.442200 4.834800
									CHANNELS 3 Xrotation Yrotation Zrotation
									JOINT HeadTop_End
									{
										OFFSET 0.000000 34.668396 4.968400
										CHANNELS 3 Xrotation Yrotation Zrotation
										End Site
										{
											OFFSET 0 0 0
										}
									}
								}
							}
						}
						JOINT LeftShoulder_virtual
						{
							OFFSET 0.000000 0.000000 0.000000
							CHANNELS 3 Xrotation Yrotation Zrotation
							JOINT LeftShoulder
							{
								OFFSET 3.288150 8.794197 -1.372250
								CHANNELS 3 Xrotation Yrotation Zrotation
								JOINT LeftShoulder_split
								{
									OFFSET 3.288150 8.794197 -1.372250
									CHANNELS 3 Xrotation Yrotation Zrotation
									JOINT LeftArm
									{
										OFFSET 11.953299 -2.279007 -0.146200
										CHANNELS 3 Xrotation Yrotation Zrotation
										JOINT LeftForeArm
										{
											OFFSET 18.448900 0.000000 0.000000
											CHANNELS 3 Xrotation Yrotation Zrotation
											JOINT LeftHand
											{
												OFFSET 29.527798 0.000000 0.000000
												CHANNELS 3 Xrotation Yrotation Zrotation
												End Site
												{
													OFFSET 0 0 0
												}
											}
										}
									}
								}
							}
						}
						JOINT RightShoulder_virtual
						{
							OFFSET 0.000000 0.000000 0.000000
							CHANNELS 3 Xrotation Yrotation Zrotation
							JOINT RightShoulder
							{
								OFFSET -3.249400 8.794197 -1.372250
								CHANNELS 3 Xrotation Yrotation Zrotation
								JOINT RightShoulder_split
								{
									OFFSET -3.249400 8.794197 -1.372250
									CHANNELS 3 Xrotation Yrotation Zrotation
									JOINT RightArm
									{
										OFFSET -11.953299 -2.279007 -0.146200
										CHANNELS 3 Xrotation Yrotation Zrotation
										JOINT RightForeArm
										{
											OFFSET -18.448900 0.000000 0.000000
											CHANNELS 3 Xrotation Yrotation Zrotation
											JOINT RightHand
											{
												OFFSET -29.527802 0.000000 0.000000
												CHANNELS 3 Xrotation Yrotation Zrotation
												End Site
												{
													OFFSET 0 0 0
												}
											}
										}
									}
								}
							}
						}
					}
				}
			}
		}
	}
}
MOTION
Frames: 5
Frame Time: 0.03333333
-0.414648 101.018440 11.974121 0.000000 0.000000 0.000000 2.818811 32.314998 -1.454726 -25.569221 7.343512 4.737175 23.021149 -17.803364 -3.639610 -4.233236 -11.503176 4.703580 -1.222014 -0.274324 -0.172008 0.000000 0.000000 0.000000 2.826762 32.693896 -1.787847 -16.138627 14.762866 2.876359 20.395737 17.316603 -3.490877 -6.512790 5.309794 -6.155824 -4.018203 -1.885101 0.772018 0.000000 0.000000 0.000000 3.274143 34.341665 -2.161107 7.146049 0.885597 -0.856922 0.619011 0.738346 1.364976 0.573926 0.481974 0.625538 0.000000 0.000000 0.000000 1.017644 1.029688 1.531553 -3.278207 29.171144 -8.188334 -6.414338 23.351626 -2.906250 0.000000 0.000000 0.000000 1.375710 1.037173 1.793700 0.074009 -3.304282 -1.574457 4.985720 0.530251 -2.366453 -63.284810 18.474798 -19.283907 10.375660 -74.353050 12.387871 0.000000 0.000000 0.000000 1.401132 1.077484 1.411159 4.628701 6.493868 9.253006 -2.801112 -0.852854 0.978956 12.035860 21.820380 62.604817 10.495177 22.886142 -4.204119 0.000000 0.000000 0.000000 
-1.653431 101.231117 12.615681 0.000000 0.000000 0.000000 3.127563 37.654567 -2.142550 -26.555303 8.462232 5.832865 22.849163 -18.315844 -3.291427 -3.471201 -10.275984 4.658266 -1.642535 -0.353353 0.457254 0.000000 0.000000 0.000000 3.452376 38.152132 -2.634713 -15.605095 13.749391 2.329051 18.790661 14.584844 -2.035348 -6.781638 4.108625 -6.457156 -2.561246 -2.009297 1.204467 0.000000 0.000000 0.000000 3.523017 39.641042 -2.817870 7.269995 0.552515 -1.268086 0.593862 0.458953 1.368948 0.612354 0.414919 0.596488 0.000000 0.000000 0.000000 1.042301 0.769503 1.621759 -3.490861 27.431071 -8.288437 -7.318026 21.527093 -1.522394 0.000000 0.000000 0.000000 1.265894 0.778696 1.909751 0.121789 -6.544740 -0.858230 4.846084 0.479987 -2.204449 -63.328551 16.298626 -20.732809 9.681824 -72.664812 11.972293 0.000000 0.000000 0.000000 1.321389 0.797066 1.543935 4.581888 6.275815 8.886378 -3.305784 -0.710318 0.939593 11.209128 18.741250 63.177611 10.650788 23.450987 -4.412335 0.000000 0.000000 0.000000 
-2.862825 101.303345 12.878246 0.000000 0.000000 0.000000 3.569650 42.547864 -2.989515 -28.069212 9.484344 7.436284 22.120351 -17.491250 -2.860872 -2.894495 -8.705076 4.415096 -1.291947 -0.396172 0.964863 0.000000 0.000000 0.000000 4.237939 42.903744 -3.619016 -15.827462 12.308689 2.063218 18.344555 11.779345 -0.902464 -7.409793 2.755591 -6.278516 -1.031186 -1.731054 1.055013 0.000000 0.000000 0.000000 4.057973 44.326251 -3.685401 7.409498 0.360505 -1.715788 0.611606 0.268363 1.427766 0.657093 0.322712 0.570752 0.000000 0.000000 0.000000 1.111471 0.591278 1.749856 -3.857881 25.767514 -8.242788 -8.222105 19.674327 -0.123928 0.000000 0.000000 0.000000 1.205363 0.596341 2.057321 0.228609 -9.330371 -0.140282 4.479601 0.289410 -1.950821 -63.438155 14.210300 -22.060131 9.016190 -71.105753 11.617066 0.000000 0.000000 0.000000 1.243407 0.598328 1.725819 4.516878 6.139858 8.541966 -3.583482 -0.552686 0.803686 9.691509 14.722171 63.806111 10.762237 24.178742 -4.608386 0.000000 0.000000 0.000000 
-4.040559 101.243057 12.869488 0.000000 0.000000 0.000000 4.105305 46.955488 -3.928229 -29.944154 9.924654 9.481990 20.979235 -15.526092 -2.370590 -2.244134 -6.918858 3.918597 -0.029577 -0.401071 1.163795 0.000000 0.000000 0.000000 5.021919 46.991739 -4.645355 -16.522333 10.912122 2.167459 18.829686 9.248922 -0.220038 -8.169211 1.345255 -5.600479 -0.239169 -1.191335 0.394731 0.000000 0.000000 0.000000 4.782804 48.427588 -4.726801 7.549665 0.275626 -2.150765 0.670366 0.137862 1.554116 0.767551 0.244611 0.575678 0.000000 0.000000 0.000000 1.221533 0.469638 1.915508 -4.254066 24.212570 -8.081674 -9.053690 17.869025 1.199550 0.000000 0.000000 0.000000 1.195290 0.459553 2.235982 0.373157 -11.572123 0.526816 3.898210 -0.073512 -1.773954 -63.727782 12.322950 -23.310384 8.574570 -69.681324 11.483798 0.000000 0.000000 0.000000 1.172196 0.463343 1.954328 4.459270 6.087548 8.241659 -3.614207 -0.402000 0.610553 7.524563 9.937141 64.378132 10.741154 24.893917 -4.708280 0.000000 0.000000 0.000000 
-5.130998 101.077377 12.661064 0.000000 0.000000 0.000000 4.683631 50.797872 -4.853142 -31.692593 9.660321 11.644535 20.167804 -12.545995 -1.764365 -1.448265 -4.900385 3.444546 1.636906 -0.325484 0.999244 0.000000 0.000000 0.000000 5.684723 50.482628 -5.582106 -17.370032 9.788067 2.610112 19.894195 7.136155 0.016058 -8.631888 -0.157741 -4.582698 -0.776783 -0.641561 -0.352335 0.000000 0.000000 0.000000 5.528377 51.904247 -5.800025 7.684350 0.233534 -2.543265 0.748294 0.025723 1.732793 0.913265 0.197174 0.641397 0.000000 0.000000 0.000000 1.352999 0.364275 2.115185 -4.511723 22.825944 -7.875491 -9.752610 16.216022 2.338341 0.000000 0.000000 0.000000 1.218631 0.330473 2.421373 0.517894 -13.235341 1.039349 3.205538 -0.595409 -1.644345 -64.200950 10.701715 -24.479804 8.427408 -68.265610 11.602450 0.000000 0.000000 0.000000 1.112372 0.358354 2.214165 4.422906 6.073128 7.975120 -3.509133 -0.308313 0.287540 4.861908 4.699983 64.773826 10.520233 25.449392 -4.640977 0.000000 0.000000 0.000000 
